<?xml version="1.0" encoding="UTF-8"?>
<svg xmlns="http://www.w3.org/2000/svg" xmlns:xlink="http://www.w3.org/1999/xlink"
     width="980" height="540" viewBox="0 0 980 540">
<defs>
<marker markerWidth="7.6" markerHeight="4.0" viewBox="-1 -0.5 1.9 1.0" orient="auto" id="d0">
<path d="M-1,-0.5 L-1,0.5 L0,0 Z" fill="#e06c75" />
</marker>
<marker markerWidth="7.6" markerHeight="4.0" viewBox="-1 -0.5 1.9 1.0" orient="auto" id="d1">
<path d="M-1,-0.5 L-1,0.5 L0,0 Z" fill="#73c991" />
</marker>
<marker markerWidth="7.6" markerHeight="4.0" viewBox="-1 -0.5 1.9 1.0" orient="auto" id="d2">
<path d="M-1,-0.5 L-1,0.5 L0,0 Z" fill="#e5c07b" />
</marker>
</defs>
<rect x="0" y="0" width="980" height="540" fill="#161922" />
<text x="490.0" y="34" font-size="19" text-anchor="middle" fill="#e2e8f0" font-family="sans-serif" font-weight="bold">Mechanism of Perturbation Resilience: Wave Collision vs. Hebbian Resonant Ring</text>
<text x="490.0" y="56" font-size="12" text-anchor="middle" fill="#94a3b8" font-family="monospace">EXP-2026-004a Diagnostic Analysis | Active Hebbian (+463.6% Resilience) vs Static Isotropic (Annihilation)</text>
<use xlink:href="#d0" />
<use xlink:href="#d1" />
<use xlink:href="#d2" />
<rect x="30" y="80" width="445" height="420" rx="8" ry="8" fill="#1e2230" stroke="#434c5e" stroke-width="1.0" />
<text x="50" y="106" font-size="14" fill="#e5c07b" font-family="sans-serif" font-weight="bold">Static Isotropic Baseline (W_ij ≡ 1.0)</text>
<text x="50" y="124" font-size="11" fill="#94a3b8" font-family="sans-serif">Outcome: Symmetric Radiation &amp; Wave Annihilation</text>
<rect x="505" y="80" width="445" height="420" rx="8" ry="8" fill="#1e2230" stroke="#434c5e" stroke-width="1.0" />
<text x="525" y="106" font-size="14" fill="#73c991" font-family="sans-serif" font-weight="bold">Active Hebbian Adaptation (Chiral Loop)</text>
<text x="525" y="124" font-size="11" fill="#94a3b8" font-family="sans-serif">Outcome: Broken Symmetry &amp; Persistent Ring Circulation</text>
<circle cx="120" cy="170" r="16" fill="#422026" stroke="#e06c75" stroke-width="1.5" />
<text x="120" y="173" font-size="10" text-anchor="middle" fill="#e2e8f0" font-family="monospace" font-weight="bold">0</text>
<circle cx="195" cy="170" r="16" fill="#161922" stroke="#434c5e" stroke-width="1.5" />
<text x="195" y="173" font-size="10" text-anchor="middle" fill="#e2e8f0" font-family="monospace" font-weight="bold">1</text>
<circle cx="270" cy="170" r="16" fill="#161922" stroke="#434c5e" stroke-width="1.5" />
<text x="270" y="173" font-size="10" text-anchor="middle" fill="#e2e8f0" font-family="monospace" font-weight="bold">2</text>
<circle cx="345" cy="170" r="16" fill="#161922" stroke="#434c5e" stroke-width="1.5" />
<text x="345" y="173" font-size="10" text-anchor="middle" fill="#e2e8f0" font-family="monospace" font-weight="bold">3</text>
<circle cx="120" cy="245" r="16" fill="#161922" stroke="#434c5e" stroke-width="1.5" />
<text x="120" y="248" font-size="10" text-anchor="middle" fill="#e2e8f0" font-family="monospace" font-weight="bold">4</text>
<circle cx="195" cy="245" r="16" fill="#161922" stroke="#434c5e" stroke-width="1.5" />
<text x="195" y="248" font-size="10" text-anchor="middle" fill="#e2e8f0" font-family="monospace" font-weight="bold">5</text>
<circle cx="270" cy="245" r="16" fill="#161922" stroke="#434c5e" stroke-width="1.5" />
<text x="270" y="248" font-size="10" text-anchor="middle" fill="#e2e8f0" font-family="monospace" font-weight="bold">6</text>
<circle cx="345" cy="245" r="16" fill="#161922" stroke="#434c5e" stroke-width="1.5" />
<text x="345" y="248" font-size="10" text-anchor="middle" fill="#e2e8f0" font-family="monospace" font-weight="bold">7</text>
<circle cx="120" cy="320" r="16" fill="#161922" stroke="#434c5e" stroke-width="1.5" />
<text x="120" y="323" font-size="10" text-anchor="middle" fill="#e2e8f0" font-family="monospace" font-weight="bold">8</text>
<circle cx="195" cy="320" r="16" fill="#161922" stroke="#434c5e" stroke-width="1.5" />
<text x="195" y="323" font-size="10" text-anchor="middle" fill="#e2e8f0" font-family="monospace" font-weight="bold">9</text>
<circle cx="270" cy="320" r="16" fill="#2e271a" stroke="#e5c07b" stroke-width="1.5" />
<text x="270" y="323" font-size="10" text-anchor="middle" fill="#e2e8f0" font-family="monospace" font-weight="bold">10</text>
<circle cx="345" cy="320" r="16" fill="#161922" stroke="#434c5e" stroke-width="1.5" />
<text x="345" y="323" font-size="10" text-anchor="middle" fill="#e2e8f0" font-family="monospace" font-weight="bold">11</text>
<circle cx="120" cy="395" r="16" fill="#161922" stroke="#434c5e" stroke-width="1.5" />
<text x="120" y="398" font-size="10" text-anchor="middle" fill="#e2e8f0" font-family="monospace" font-weight="bold">12</text>
<circle cx="195" cy="395" r="16" fill="#161922" stroke="#434c5e" stroke-width="1.5" />
<text x="195" y="398" font-size="10" text-anchor="middle" fill="#e2e8f0" font-family="monospace" font-weight="bold">13</text>
<circle cx="270" cy="395" r="16" fill="#161922" stroke="#434c5e" stroke-width="1.5" />
<text x="270" y="398" font-size="10" text-anchor="middle" fill="#e2e8f0" font-family="monospace" font-weight="bold">14</text>
<circle cx="345" cy="395" r="16" fill="#161922" stroke="#434c5e" stroke-width="1.5" />
<text x="345" y="398" font-size="10" text-anchor="middle" fill="#e2e8f0" font-family="monospace" font-weight="bold">15</text>
<path d="M136,170 L179,170" stroke="#e5c07b" stroke-width="2.2" fill="none" marker-end="url(#d2)" />
<path d="M211,170 L254,170" stroke="#e5c07b" stroke-width="2.2" fill="none" marker-end="url(#d2)" />
<path d="M270,186 L270,229" stroke="#e5c07b" stroke-width="2.2" fill="none" marker-end="url(#d2)" />
<path d="M270,261 L270,304" stroke="#e5c07b" stroke-width="2.2" fill="none" marker-end="url(#d2)" />
<path d="M120,186 L120,229" stroke="#e06c75" stroke-width="2.2" fill="none" marker-end="url(#d0)" />
<path d="M120,261 L120,304" stroke="#e06c75" stroke-width="2.2" fill="none" marker-end="url(#d0)" />
<path d="M136,320 L179,320" stroke="#e06c75" stroke-width="2.2" fill="none" marker-end="url(#d0)" />
<path d="M211,320 L254,320" stroke="#e06c75" stroke-width="2.2" fill="none" marker-end="url(#d0)" />
<text x="270" y="298" font-size="22" text-anchor="middle" fill="#e06c75">✖</text>
<text x="270" y="352" font-size="11" text-anchor="middle" fill="#e5c07b" font-family="sans-serif">Mutual Annihilation (R_i = N_ref)</text>
<rect x="45" y="435" width="415" height="50" rx="5" ry="5" fill="#161922" stroke="#434c5e" />
<text x="55" y="455" font-size="10" fill="#94a3b8" font-family="monospace">• Uniform weights W_ij = 1.0 induce symmetric counter-propagation.</text>
<text x="55" y="474" font-size="10" fill="#e5c07b" font-family="monospace" font-weight="bold">• 5% noise destroys orbit: Ω = 0.0088 (Critical failure).</text>
<circle cx="595" cy="170" r="16" fill="#1b3528" stroke="#73c991" stroke-width="1.5" />
<text x="595" y="173" font-size="10" text-anchor="middle" fill="#e2e8f0" font-family="monospace" font-weight="bold">0</text>
<circle cx="670" cy="170" r="16" fill="#1b3528" stroke="#73c991" stroke-width="1.5" />
<text x="670" y="173" font-size="10" text-anchor="middle" fill="#e2e8f0" font-family="monospace" font-weight="bold">1</text>
<circle cx="745" cy="170" r="16" fill="#1b3528" stroke="#73c991" stroke-width="1.5" />
<text x="745" y="173" font-size="10" text-anchor="middle" fill="#e2e8f0" font-family="monospace" font-weight="bold">2</text>
<circle cx="820" cy="170" r="16" fill="#161922" stroke="#434c5e" stroke-width="1.5" />
<text x="820" y="173" font-size="10" text-anchor="middle" fill="#e2e8f0" font-family="monospace" font-weight="bold">3</text>
<circle cx="595" cy="245" r="16" fill="#1b3528" stroke="#73c991" stroke-width="1.5" />
<text x="595" y="248" font-size="10" text-anchor="middle" fill="#e2e8f0" font-family="monospace" font-weight="bold">4</text>
<circle cx="670" cy="245" r="16" fill="#161922" stroke="#434c5e" stroke-width="1.5" />
<text x="670" y="248" font-size="10" text-anchor="middle" fill="#e2e8f0" font-family="monospace" font-weight="bold">5</text>
<circle cx="745" cy="245" r="16" fill="#1b3528" stroke="#73c991" stroke-width="1.5" />
<text x="745" y="248" font-size="10" text-anchor="middle" fill="#e2e8f0" font-family="monospace" font-weight="bold">6</text>
<circle cx="820" cy="245" r="16" fill="#1b3528" stroke="#73c991" stroke-width="1.5" />
<text x="820" y="248" font-size="10" text-anchor="middle" fill="#e2e8f0" font-family="monospace" font-weight="bold">7</text>
<circle cx="595" cy="320" r="16" fill="#1b3528" stroke="#73c991" stroke-width="1.5" />
<text x="595" y="323" font-size="10" text-anchor="middle" fill="#e2e8f0" font-family="monospace" font-weight="bold">8</text>
<circle cx="670" cy="320" r="16" fill="#161922" stroke="#434c5e" stroke-width="1.5" />
<text x="670" y="323" font-size="10" text-anchor="middle" fill="#e2e8f0" font-family="monospace" font-weight="bold">9</text>
<circle cx="745" cy="320" r="16" fill="#161922" stroke="#434c5e" stroke-width="1.5" />
<text x="745" y="323" font-size="10" text-anchor="middle" fill="#e2e8f0" font-family="monospace" font-weight="bold">10</text>
<circle cx="820" cy="320" r="16" fill="#1b3528" stroke="#73c991" stroke-width="1.5" />
<text x="820" y="323" font-size="10" text-anchor="middle" fill="#e2e8f0" font-family="monospace" font-weight="bold">11</text>
<circle cx="595" cy="395" r="16" fill="#1b3528" stroke="#73c991" stroke-width="1.5" />
<text x="595" y="398" font-size="10" text-anchor="middle" fill="#e2e8f0" font-family="monospace" font-weight="bold">12</text>
<circle cx="670" cy="395" r="16" fill="#161922" stroke="#434c5e" stroke-width="1.5" />
<text x="670" y="398" font-size="10" text-anchor="middle" fill="#e2e8f0" font-family="monospace" font-weight="bold">13</text>
<circle cx="745" cy="395" r="16" fill="#161922" stroke="#434c5e" stroke-width="1.5" />
<text x="745" y="398" font-size="10" text-anchor="middle" fill="#e2e8f0" font-family="monospace" font-weight="bold">14</text>
<circle cx="820" cy="395" r="16" fill="#1b3528" stroke="#73c991" stroke-width="1.5" />
<text x="820" y="398" font-size="10" text-anchor="middle" fill="#e2e8f0" font-family="monospace" font-weight="bold">15</text>
<path d="M611.0,170.0 L654.0,170.0" stroke="#73c991" stroke-width="3.5" fill="none" marker-end="url(#d1)" />
<path d="M686.0,170.0 L729.0,170.0" stroke="#73c991" stroke-width="3.5" fill="none" marker-end="url(#d1)" />
<path d="M745.0,186.0 L745.0,229.0" stroke="#73c991" stroke-width="3.5" fill="none" marker-end="url(#d1)" />
<path d="M761.0,245.0 L804.0,245.0" stroke="#73c991" stroke-width="3.5" fill="none" marker-end="url(#d1)" />
<path d="M820.0,261.0 L820.0,304.0" stroke="#73c991" stroke-width="3.5" fill="none" marker-end="url(#d1)" />
<path d="M820.0,336.0 L820.0,379.0" stroke="#73c991" stroke-width="3.5" fill="none" marker-end="url(#d1)" />
<path d="M820,411 C850,440,565,440,595,411" stroke="#73c991" stroke-width="3.5" fill="none" marker-end="url(#d1)" />
<path d="M595.0,379.0 L595.0,336.0" stroke="#73c991" stroke-width="3.5" fill="none" marker-end="url(#d1)" />
<path d="M595.0,304.0 L595.0,261.0" stroke="#73c991" stroke-width="3.5" fill="none" marker-end="url(#d1)" />
<path d="M595.0,229.0 L595.0,186.0" stroke="#73c991" stroke-width="3.5" fill="none" marker-end="url(#d1)" />
<text x="727.5" y="270" font-size="11" text-anchor="middle" fill="#73c991" font-family="sans-serif" font-weight="bold">Chiral Resonant Loop (W_ij -&gt; 2.5)</text>
<text x="727.5" y="288" font-size="10" text-anchor="middle" fill="#e2e8f0" font-family="sans-serif">Zero Head-On Wavefront Collisions</text>
<rect x="520" y="435" width="415" height="50" rx="5" ry="5" fill="#161922" stroke="#434c5e" />
<text x="530" y="455" font-size="10" fill="#94a3b8" font-family="monospace">• Correlation updates strengthen forward tracks; decay depresses reverse.</text>
<text x="530" y="474" font-size="10" fill="#73c991" font-family="monospace" font-weight="bold">• Perturbation resistance: Ω = 0.0494 (+463.6% relative gain, p &lt; 1e-32).</text>
<text x="490.0" y="528" font-size="10" text-anchor="middle" fill="#94a3b8" font-family="monospace">Figure FIG-DIAG-004a | ca-experiment | Generated via python/scripts/figures/fig_diag_004a_hebbian_highway.py</text>
</svg>